<svg xmlns="http://www.w3.org/2000/svg" viewBox="0 0 100 100" fill="none">
  <defs>
    <!-- Beautiful coral-rose gradient matching Truce's brand logo -->
    <linearGradient id="truce-logo-gradient" x1="0%" y1="0%" x2="0%" y2="100%">
      <stop offset="0%" stop-color="#FF5A79" />
      <stop offset="25%" stop-color="#FA2C56" />
      <stop offset="100%" stop-color="#B80D2F" />
    </linearGradient>
  </defs>
  
  <!-- Exact circular logo shape and dimensions -->
  <circle cx="50" cy="46" r="42" fill="url(#truce-logo-gradient)" />
  
  <!-- Signature cursive "t" ribbon overlay -->
  <path d="M41.5 41C41.5 32 43 26.5 47.5 25.5C50 25 52.5 26.5 52.5 29.5C52.5 32 52 35.5 52 38H58.5C60.5 38 62 39.5 62 41.5C62 43.5 60.5 45 58.5 45H51.5C51 53 51 59 52.5 61.5C53.5 63.5 55.5 64 58 61.5C60 59 63 55 65.5 51C67 48.5 70 47.5 72 49.5C74 51.5 73.5 54.5 71.5 57.5C67.5 64 61.5 73 54.5 74.5C47.5 76 43.5 71 43.5 61C43.5 54.5 43 49 43 45H37.5C35.5 45 34 43.5 34 41.5C34 39.5 35.5 38 37.5 38H42.5V41Z" fill="#FDF3F5"/>
</svg>
